<?xml version="1.0" standalone="no"?><svg xmlns="http://www.w3.org/2000/svg" viewBox="0 0 1440 320"><path fill="#002233" fill-opacity="1" d="M0,224L30,213.3C60,203,120,181,180,165.3C240,149,300,139,360,138.7C420,139,480,149,540,165.3C600,181,660,203,720,181.3C780,160,840,96,900,69.3C960,43,1020,53,1080,80C1140,107,1200,149,1260,160C1320,171,1380,149,1410,138.7L1440,128L1440,320L1410,320C1380,320,1320,320,1260,320C1200,320,1140,320,1080,320C1020,320,960,320,900,320C840,320,780,320,720,320C660,320,600,320,540,320C480,320,420,320,360,320C300,320,240,320,180,320C120,320,60,320,30,320L0,320Z"></path></svg>