<?xml version="1.0" standalone="no"?><svg xmlns="http://www.w3.org/2000/svg" viewBox="0 0 1440 320"><path fill="#002233" fill-opacity="1" d="M0,64L24,96C48,128,96,192,144,197.3C192,203,240,149,288,154.7C336,160,384,224,432,218.7C480,213,528,139,576,122.7C624,107,672,149,720,165.3C768,181,816,171,864,160C912,149,960,139,1008,138.7C1056,139,1104,149,1152,165.3C1200,181,1248,203,1296,202.7C1344,203,1392,181,1416,170.7L1440,160L1440,320L1416,320C1392,320,1344,320,1296,320C1248,320,1200,320,1152,320C1104,320,1056,320,1008,320C960,320,912,320,864,320C816,320,768,320,720,320C672,320,624,320,576,320C528,320,480,320,432,320C384,320,336,320,288,320C240,320,192,320,144,320C96,320,48,320,24,320L0,320Z"></path></svg>